<svg height="512" viewBox="0 0 59 58" width="512" xmlns="http://www.w3.org/2000/svg"><g id="Page-1" fill="none" fill-rule="evenodd"><g id="001---Plant" fill-rule="nonzero" transform="translate(0 -1)"><path id="Shape" d="m54 43c-1.1673111.0047987-2.2955128.4212347-3.186 1.176-.5752616-2.7794927-2.4280074-5.1247393-4.9988827-6.3276963-2.5708753-1.2029571-5.5585831-1.1226425-8.0611173.2166963-.8839144-3.5633487-4.0826571-6.0655643-7.754-6.0655643s-6.8700856 2.5022156-7.754 6.0655643c-2.5025342-1.3393388-5.490242-1.4196534-8.0611173-.2166963-2.5708753 1.202957-4.42362107 3.5482036-4.9988827 6.3276963-2.01132885-1.6939378-4.99103591-1.5404532-6.81767221.3511781-1.8266363 1.8916312-1.87588899 4.8748821-.11269185 6.8257806s4.73621368 2.202661 6.80236406.5760413c.41091807 3.5388614 3.1146033 6.3783955 6.6290875 6.9621715 3.5144843.5837759 6.9909772-1.2291952 8.5239125-4.4451715 1.1065588 2.1801356 3.3441148 3.5537109 5.789 3.5537109s4.6824412-1.3735753 5.789-3.5537109c1.5329353 3.2159763 5.0094282 5.0289474 8.5239125 4.4451715 3.5144842-.583776 6.2181694-3.4233101 6.6290875-6.9621715 1.7229593 1.3415686 4.1179948 1.4073097 5.9119534.1622767 1.7939587-1.245033 2.5702537-3.5117229 1.916222-5.5951426-.6540316-2.0834197-2.5865129-3.4997646-4.7701754-3.4961341z" fill="#cb8252"/><path id="Shape" d="m49.409 16.409c-4.086 4.086-10.061 5.2-13.271 5.5-.5826213.0670021-1.1639532-.1356652-1.578644-.550356s-.6173581-.9960227-.550356-1.578644c.3-3.21 1.414-9.184 5.5-13.27s10.06-5.2 13.27-5.5c.5826213-.06700207 1.1639532.13566522 1.578644.550356.4146908.41469077.6173581.99602268.550356 1.578644-.299 3.209-1.408 9.184-5.499 13.27z" fill="#26b99a"/><path id="Shape" d="m18.6 9.7c4.321 3.837 5.787 9.735 6.278 12.921.1012518.5778117-.0667739 1.1702394-.4563069 1.6088535-.389533.4386142-.9579667.6754398-1.5436931.6431465-3.222-.11-9.252-.867-13.574-4.7s-5.788-9.734-6.279-12.92c-.10154703-.57778396.06619802-1.17031936.4555411-1.60913375.38934308-.43881438.95769487-.67590689 1.5434589-.64386625 3.222.111 9.252.868 13.576 4.7z" fill="#26b99a"/><path id="Shape" d="m30 39h-.042c-.535817-.022524-.9584732-.46371-.958-1 0-4.749-2.9-10.487-5.707-13.293-2.951-2.95-14.849-13.86-14.969-13.97-.40703384-.3733445-.43434446-1.00596613-.06099998-1.41299998s1.00596612-.43434449 1.41299998-.06100002c.491.449 12.05 11.049 15.031 14.03 2.3100736 2.4742764 4.0694095 5.4101383 5.162 8.614.752-3.877 2.087-8.7 4.35-11.532 4.1980452-5.2120504 8.9439496-9.9579548 14.156-14.156.2790244-.22329101.655978-.28076266.9888659-.15076591.3328879.12999674.5711365.42771227.625.78100002.0538634.35328775-.0848415.7084749-.3638659.93176589-5.0973404 4.1053369-9.7386631 8.7466596-13.844 13.844-3.762 4.7-4.775 16.341-4.784 16.458-.0431831.518484-.4767208.9172344-.997.917z" fill="#14a085"/><g fill="#a56a43"><path id="Shape" d="m32 40c-.2651948-.0000566-.5195073-.1054506-.707-.293-.3494847-.3611341-.8003633-.6076702-1.293-.707-.4954116.0990714-.9488791.3467344-1.3.71-.3931693.378225-1.016933.3715217-1.4018833-.0150654-.3849502-.3865872-.3890067-1.0103737-.0091167-1.4019346.7240342-.7356397 1.6836463-1.1933226 2.711-1.293 1.0259392.1005866 1.9839926.5582013 2.707 1.293.2859079.2859943.3714219.7160366.216678 1.0896546-.1547439.3736179-.5192821.6172591-.923678.6173454z"/><path id="Shape" d="m17 48c-1.6568542 0-3-1.3431458-3-3 0-.5522847.4477153-1 1-1s1 .4477153 1 1 .4477153 1 1 1 1-.4477153 1-1 .4477153-1 1-1 1 .4477153 1 1c0 1.6568542-1.3431458 3-3 3z"/><path id="Shape" d="m28 52c-1.6568542 0-3-1.3431458-3-3 0-.5522847.4477153-1 1-1s1 .4477153 1 1 .4477153 1 1 1 1-.4477153 1-1 .4477153-1 1-1 1 .4477153 1 1c0 1.6568542-1.3431458 3-3 3z"/><path id="Shape" d="m41 46c-1.6568542 0-3-1.3431458-3-3 0-.5522847.4477153-1 1-1s1 .4477153 1 1 .4477153 1 1 1 1-.4477153 1-1 .4477153-1 1-1 1 .4477153 1 1c0 1.6568542-1.3431458 3-3 3z"/></g><circle id="Oval" cx="42" cy="52" fill="#805333" r="1"/><circle id="Oval" cx="48" cy="47" fill="#805333" r="1"/><circle id="Oval" cx="58" cy="40" fill="#cb8252" r="1"/><circle id="Oval" cx="33" cy="44" fill="#805333" r="1"/><circle id="Oval" cx="8" cy="37" fill="#cb8252" r="1"/><circle id="Oval" cx="53" cy="38" fill="#cb8252" r="1"/><circle id="Oval" cx="18" cy="53" fill="#805333" r="1"/><circle id="Oval" cx="12" cy="33" fill="#cb8252" r="1"/></g></g></svg>