<svg id="Capa_1" enable-background="new 0 0 496.648 496.648" height="512" viewBox="0 0 496.648 496.648" width="512" xmlns="http://www.w3.org/2000/svg"><g><path d="m192.888 279.541 17.579 3.578c2.773.564 5.647.044 8.082-1.465l15.021-9.305c1.231-.763 2.584-1.279 3.993-1.524l17.072-2.967c2.772-.482 5.284-2.007 7.071-4.293l11.531-14.75c.959-1.226 2.135-2.244 3.462-2.996l14.766-8.369c2.503-1.419 4.426-3.756 5.404-6.569l6.297-18.109c.468-1.345 1.156-2.593 2.033-3.688l11.428-14.259c1.771-2.21 2.742-5.009 2.742-7.902v-18.904c0-1.465.249-2.918.736-4.29l6.265-17.659c.981-2.766.981-5.813 0-8.579l-6.265-17.659c-.487-1.372-.736-2.825-.736-4.29v-18.905c0-2.893-.972-5.693-2.742-7.902l-11.428-14.259c-.877-1.094-1.565-2.342-2.033-3.688l-6.297-18.109c-.978-2.813-2.901-5.151-5.404-6.569l-14.766-8.369c-1.328-.752-2.503-1.77-3.462-2.996l-11.531-14.75c-1.787-2.286-4.299-3.811-7.071-4.293l-17.072-2.967c-1.409-.245-2.762-.761-3.993-1.524l-15.021-9.305c-2.435-1.509-5.309-2.03-8.082-1.465l-17.579 3.578c-1.454.296-2.948.296-4.401 0l-17.58-3.579c-2.773-.565-5.647-.044-8.082 1.465l-15.021 9.305c-1.231.762-2.584 1.279-3.993 1.524l-17.072 2.967c-2.772.482-5.284 2.007-7.071 4.293l-11.531 14.75c-.959 1.226-2.135 2.244-3.462 2.996l-14.766 8.369c-2.503 1.419-4.426 3.756-5.404 6.569l-6.297 18.109c-.468 1.345-1.156 2.593-2.033 3.688l-11.428 14.26c-1.771 2.21-2.743 5.009-2.743 7.902v18.904c0 1.465-.249 2.918-.736 4.29l-6.265 17.659c-.981 2.766-.981 5.813 0 8.579l6.265 17.659c.487 1.372.736 2.825.736 4.29v18.904c0 2.893.972 5.693 2.743 7.902l11.428 14.259c.877 1.094 1.565 2.342 2.033 3.688l6.297 18.109c.978 2.813 2.901 5.151 5.404 6.569l14.766 8.369c1.328.752 2.503 1.77 3.462 2.996l11.531 14.75c1.787 2.286 4.299 3.811 7.071 4.293l17.072 2.967c1.409.245 2.762.761 3.993 1.524l15.021 9.305c2.435 1.509 5.309 2.03 8.082 1.465l17.579-3.578c1.454-.295 2.948-.295 4.402.001z" fill="#fdb441"/><ellipse cx="194.846" cy="141.835" fill="#fae88b" rx="100.219" ry="105.675"/><path d="m146.246 141.835c0-48.863 31.603-90.091 74.396-102.127-8.238-2.317-16.875-3.548-25.796-3.548-55.261 0-100.219 47.406-100.219 105.675s44.958 105.675 100.219 105.675c8.921 0 17.54-1.233 25.779-3.551-42.793-12.036-74.379-53.262-74.379-102.124z" fill="#f9dd58"/><path d="m255.163 246.419c-45.962 21.64-77.347 69.139-75.378 123.746 2.523 69.951 60.31 125.986 130.305 126.48 72.973.515 132.29-58.484 132.29-131.338 0-52.947-31.333-98.569-76.465-119.354v-190.577c0-30.584-24.792-55.376-55.375-55.376-30.583 0-55.376 24.792-55.376 55.376v191.043z" fill="#f8f6f6"/><path d="m285.163 265.454-17.221 8.108c-36.809 17.331-59.644 54.825-58.176 95.522.94 26.054 11.865 50.5 30.762 68.837 18.899 18.339 43.679 28.54 69.774 28.724 0 0 .735.003.737.003 27.067 0 52.519-10.542 71.658-29.682 19.142-19.141 29.683-44.59 29.683-71.659 0-39.441-23.165-75.595-59.015-92.105l-17.451-8.037v-209.265c0-12.947-10.518-24.858-23.429-25.827-14.868-1.115-27.323 10.666-27.323 25.302v210.079z" fill="#eeb3b2"/><circle cx="311.04" cy="365.222" fill="#e3817f" r="70.914"/><path d="m285.163 107.77h50.752v15h-50.752z" fill="#e99996"/><path d="m285.163 200.49h50.752v15h-50.752z" fill="#e99996"/><g><path d="m310.093 412.922h-2.18c-11.978 0-21.722-9.744-21.722-21.721v-26.475c0-11.978 9.744-21.722 21.722-21.722h2.18c11.977 0 21.721 9.744 21.721 21.722 0 4.142-3.357 7.5-7.5 7.5s-7.5-3.358-7.5-7.5c0-3.707-3.015-6.722-6.721-6.722h-2.18c-3.706 0-6.722 3.015-6.722 6.722v26.475c0 3.706 3.016 6.721 6.722 6.721h2.18c3.706 0 6.721-3.015 6.721-6.721 0-4.142 3.357-7.5 7.5-7.5s7.5 3.358 7.5 7.5c0 11.977-9.745 21.721-21.721 21.721z" fill="#f8f6f6"/></g><g><path d="m332.389 337.937c-4.143 0-7.5-3.358-7.5-7.5v-4.01c0-4.142 3.357-7.5 7.5-7.5s7.5 3.358 7.5 7.5v4.01c0 4.142-3.358 7.5-7.5 7.5z" fill="#f8f6f6"/></g><path d="m291.327 109.426-43.417-20.065c-4.266-1.971-9.138 1.144-9.138 5.844v40.129c0 4.7 4.872 7.815 9.138 5.844l43.418-20.064c4.982-2.303 4.982-9.386-.001-11.688z" fill="#dd6a66"/></g></svg>